<?xml version="1.0" encoding="UTF-8" standalone="no" ?>
<!DOCTYPE svg PUBLIC "-//W3C//DTD SVG 1.1//EN" "http://www.w3.org/Graphics/SVG/1.1/DTD/svg11.dtd">
<svg xmlns="http://www.w3.org/2000/svg" xmlns:xlink="http://www.w3.org/1999/xlink" version="1.1" width="640" height="640" viewBox="0 0 640 640" xml:space="preserve">
<desc>Created with Fabric.js 4.6.0</desc>
<defs>
</defs>
<g transform="matrix(0.12 0.1 0.1 -0.12 297.2 373.13)" id="u61VtlQfEQA45CbkoTvmC"  >
<path style="stroke: rgb(179,255,179); stroke-width: 6; stroke-dasharray: none; stroke-linecap: butt; stroke-dashoffset: 0; stroke-linejoin: miter; stroke-miterlimit: 4; fill: none; fill-rule: nonzero; opacity: 1;" vector-effect="non-scaling-stroke"  transform=" translate(0, 0)" d="M 58.16177 -9.03083 C 52.468579999999996 -45.44256 27.113349999999997 -66.95023 3.001089999999998 -87.42473 L 3.001089999999998 -87.42473 C -3.3598700000000026 -92.82603 -12.876050000000003 -92.13264 -18.386860000000002 -85.86631 C -41.49947 -59.58501 -64.9089 -33.53838 -57.7205 12.626310000000004 C -49.56478 65.00321 20.584789999999998 91.06158 20.584789999999998 91.06158 C 32.860879999999995 74.70475 64.72313 32.933420000000005 58.16177 -9.030819999999991 z" stroke-linecap="round" />
</g>
<g transform="matrix(0.11 0.11 0.11 -0.11 274.51 395.54)" id="s3LG8mR5aKdIFJrwIprw1"  >
<path style="stroke: rgb(179,255,179); stroke-width: 6; stroke-dasharray: none; stroke-linecap: butt; stroke-dashoffset: 0; stroke-linejoin: miter; stroke-miterlimit: 4; fill: none; fill-rule: nonzero; opacity: 1;" vector-effect="non-scaling-stroke"  transform=" translate(0, 0)" d="M 56.04439 -5.68171 C 52.21112 -60.20483 -16.258999999999993 -89.29391 -16.258999999999993 -89.29391 C -16.258999999999993 -89.29391 -63.84398999999999 -40.476699999999994 -55.688269999999996 11.900199999999998 C -47.784319999999994 62.66023 -13.560659999999999 75.34550999999999 19.18533 88.91356999999999 L 19.18533 88.91356999999999 C 21.22196 89.75743 23.571 89.16489 24.96368 87.45597 C 45.43302 62.338809999999995 59.746340000000004 46.97368999999999 56.04439 -5.68171000000001 z" stroke-linecap="round" />
</g>
<g transform="matrix(-0.06 0.19 0.19 0.06 301.3 396.06)" id="6MV4BkZ73otJY1xE8kePz"  >
<path style="stroke: rgb(179,255,179); stroke-width: 6; stroke-dasharray: none; stroke-linecap: butt; stroke-dashoffset: 0; stroke-linejoin: miter; stroke-miterlimit: 4; fill: none; fill-rule: nonzero; opacity: 1;" vector-effect="non-scaling-stroke"  transform=" translate(0, 0)" d="M 54.97893 -20.67111 C 51.14566 -75.19423 -6.048929999999999 -82.30542 -6.048929999999999 -82.30542 C -6.048929999999999 -82.30542 -35.33897 -91.53733 -36.60325 -89.32978 C -37.7303 -87.36184 -45.82036 -54.72347 -46.88803 -50.55091 C -56.725 -12.10709 -56.66615 -2.246520000000004 -53.02091 21.163579999999996 C -44.86519 73.54048 24.364490000000004 89.67081 24.364490000000004 89.67081 C 24.364490000000004 89.67081 58.81221 33.85201 54.97894000000001 -20.67111 z" stroke-linecap="round" />
</g>
<g transform="matrix(0.25 -0.07 0.05 0.2 283.49 370.64)" id="mORuwEZeq6ZM2pTaJrWha"  >
<path style="stroke: rgb(179,255,179); stroke-width: 6; stroke-dasharray: none; stroke-linecap: butt; stroke-dashoffset: 0; stroke-linejoin: miter; stroke-miterlimit: 4; fill: none; fill-rule: nonzero; opacity: 1;" vector-effect="non-scaling-stroke"  transform=" translate(0, 0)" d="M -4.92023 -76.53285 L -4.92023 -76.53285 C 8.19923 -26.800939999999997 8.20041 26.787350000000004 -4.91688 76.52014 L -4.92023 76.53286" stroke-linecap="round" />
</g>
</svg>